M48
; DRILL file {KiCad (5.1.6)-1} date 09/11/24 12:25:19
; FORMAT={-:-/ absolute / metric / decimal}
; #@! TF.CreationDate,2024-09-11T12:25:19-05:00
; #@! TF.GenerationSoftware,Kicad,Pcbnew,(5.1.6)-1
FMAT,2
METRIC
T1C0.800
T2C0.900
T3C3.000
T4C3.200
%
G90
G05
T1
X24.22Y85.48
X24.4Y56.8
X24.4Y50.5
X25.8Y32.0
X26.3Y27.0
X31.1Y41.58
X33.5Y27.1
X35.1Y23.1
X37.15Y17.32
X42.3Y41.58
X42.4Y23.2
X54.152Y17.45
X76.2Y23.0
X76.5Y15.0
X81.3Y82.5
X81.57Y32.27
X83.7Y80.5
X83.7Y30.0
X65.17Y33.82
X72.79Y33.82
X55.01Y33.82
X62.63Y33.82
X65.17Y38.9
X72.79Y38.9
X55.12Y38.9
X62.74Y38.9
X65.17Y36.36
X72.79Y36.36
X89.91Y32.56
X92.41Y32.56
X18.9Y56.2
X18.9Y52.4
X67.75Y67.89
X75.37Y67.89
X24.2Y17.5
X24.2Y14.96
X24.2Y12.42
X80.1Y25.2
X80.1Y22.66
X80.1Y20.12
X80.1Y17.58
X80.1Y15.04
X80.1Y12.5
X37.23Y45.25
X37.23Y19.85
X39.77Y45.25
X39.77Y19.85
X42.31Y45.25
X42.31Y19.85
X44.85Y45.25
X44.85Y19.85
X47.39Y45.25
X47.39Y19.85
X49.93Y45.25
X49.93Y19.85
X52.47Y45.25
X52.47Y19.85
X55.01Y45.25
X55.01Y19.85
X57.55Y45.25
X57.55Y19.85
X60.09Y45.25
X60.09Y19.85
X62.63Y45.25
X62.63Y19.85
X65.17Y45.25
X65.17Y19.85
X67.71Y45.25
X67.71Y19.85
X70.25Y45.25
X70.25Y19.85
X72.79Y45.25
X72.79Y19.85
X54.98Y31.0
X62.6Y31.0
X67.75Y65.35
X75.37Y65.35
X37.68Y28.5
X45.3Y28.5
X55.01Y36.36
X62.63Y36.36
X89.91Y38.91
X92.41Y38.91
X29.5Y70.8
X29.5Y61.3
X44.74Y70.8
X44.74Y61.3
X67.75Y70.43
X75.37Y70.43
X67.75Y72.97
X75.37Y72.97
X89.93Y45.26
X92.43Y45.26
X37.7Y26.1
X45.32Y26.1
X89.93Y51.61
X92.43Y51.61
X65.18Y31.0
X72.8Y31.0
X72.8Y17.32
X72.8Y9.7
T2
X38.3Y11.0
X38.3Y8.46
X71.0Y56.0
X71.0Y49.5
X75.5Y56.0
X75.5Y49.5
X56.0Y56.0
X56.0Y49.5
X60.5Y56.0
X60.5Y49.5
X6.138Y78.6
X6.392Y74.1
X6.392Y69.6
X6.9Y78.6
X6.9Y74.1
X6.9Y69.6
X7.662Y78.6
X7.662Y74.1
X7.662Y69.6
X40.5Y56.0
X40.5Y49.5
X45.0Y56.0
X45.0Y49.5
X16.5Y46.0
X19.04Y46.0
X21.58Y46.0
X48.3Y12.5
X50.84Y12.5
X53.38Y12.5
X27.96Y53.0
X30.5Y53.0
X75.9Y44.5
X78.2Y44.5
X6.1Y56.0
X8.64Y56.0
X6.1Y64.2
X8.64Y64.2
X48.3Y6.0
X50.84Y6.0
X53.38Y6.0
X12.81Y88.02
X12.81Y85.48
X12.81Y82.94
X12.81Y80.4
X6.0Y31.8
X8.54Y31.8
X11.08Y31.8
X13.62Y31.8
X16.16Y31.8
X18.7Y31.8
T3
X17.99Y61.74
X18.0Y92.73
X92.99Y92.74
X92.99Y61.74
T4
X94.0Y4.0
X4.0Y4.0
X4.0Y92.0
X19.04Y4.05
T0
M30
