0
SECTION
2
HEADER
9
$INSUNITS
70
4
9
$ACADVER
1
AC1014
9
$HANDSEED
5
FFFF
0
ENDSEC
0
SECTION
2
TABLES
0
TABLE
2
VPORT
5
8
100
AcDbSymbolTable
0
ENDTAB
0
TABLE
2
LTYPE
5
5
100
AcDbSymbolTable
0
LTYPE
5
14
100
AcDbSymbolTableRecord
100
AcDbLinetypeTableRecord
2
BYBLOCK
70
0
0
LTYPE
5
15
100
AcDbSymbolTableRecord
100
AcDbLinetypeTableRecord
2
BYLAYER
70
0
0
ENDTAB
0
TABLE
2
LAYER
5
2
100
AcDbSymbolTable
70
2
0
LAYER
5
50
100
AcDbSymbolTableRecord
100
AcDbLayerTableRecord
2
0
70
0
6
CONTINUOUS
0
ENDTAB
0
TABLE
2
STYLE
5
3
100
AcDbSymbolTable
70
1
0
STYLE
5
11
100
AcDbSymbolTableRecord
100
AcDbTextStyleTableRecord
2
STANDARD
70
0
0
ENDTAB
0
TABLE
2
VIEW
5
6
100
AcDbSymbolTable
70
0
0
ENDTAB
0
TABLE
2
UCS
5
7
100
AcDbSymbolTable
70
0
0
ENDTAB
0
TABLE
2
APPID
5
9
100
AcDbSymbolTable
70
2
0
APPID
5
12
100
AcDbSymbolTableRecord
100
AcDbRegAppTableRecord
2
ACAD
70
0
0
ENDTAB
0
TABLE
2
DIMSTYLE
5
A
100
AcDbSymbolTable
70
1
0
ENDTAB
0
TABLE
2
BLOCK_RECORD
5
1
100
AcDbSymbolTable
70
1
0
BLOCK_RECORD
5
1F
100
AcDbSymbolTableRecord
100
AcDbBlockTableRecord
2
*MODEL_SPACE
0
BLOCK_RECORD
5
1B
100
AcDbSymbolTableRecord
100
AcDbBlockTableRecord
2
*PAPER_SPACE
0
ENDTAB
0
ENDSEC
0
SECTION
2
BLOCKS
0
BLOCK
5
20
100
AcDbEntity
100
AcDbBlockBegin
2
*MODEL_SPACE
0
ENDBLK
5
21
100
AcDbEntity
100
AcDbBlockEnd
0
BLOCK
5
1C
100
AcDbEntity
100
AcDbBlockBegin
2
*PAPER_SPACE
0
ENDBLK
5
1D
100
AcDbEntity
100
AcDbBlockEnd
0
ENDSEC
0
SECTION
2
ENTITIES
0
CIRCLE
5
100
100
AcDbEntity
8
0
100
AcDbCircle
10
-4.0000000596046448
20
-4.0000000596046448
30
0
40
1.6000000000000003
210
0
220
0
230
1
0
CIRCLE
5
101
100
AcDbEntity
8
0
100
AcDbCircle
10
-4.0000000596046448
20
-4.0000000596046448
30
0
40
1.3999999999999999
210
0
220
0
230
1
0
CIRCLE
5
102
100
AcDbEntity
8
0
100
AcDbCircle
10
102.00000151991844
20
-4.0000000596046448
30
0
40
1.6000000000000019
210
0
220
0
230
1
0
CIRCLE
5
103
100
AcDbEntity
8
0
100
AcDbCircle
10
102.00000151991844
20
-4.0000000596046448
30
0
40
1.4000000000000032
210
0
220
0
230
1
0
CIRCLE
5
104
100
AcDbEntity
8
0
100
AcDbCircle
10
102.00000151991844
20
100.00000149011612
30
0
40
1.5999999999999996
210
0
220
0
230
1
0
CIRCLE
5
105
100
AcDbEntity
8
0
100
AcDbCircle
10
102.00000151991844
20
100.00000149011612
30
0
40
1.4000000000000057
210
0
220
0
230
1
0
CIRCLE
5
106
100
AcDbEntity
8
0
100
AcDbCircle
10
-4.0000000596046448
20
100.00000149011612
30
0
40
1.6000000000000014
210
0
220
0
230
1
0
CIRCLE
5
107
100
AcDbEntity
8
0
100
AcDbCircle
10
-4.0000000596046448
20
100.00000149011612
30
0
40
1.4000000000000057
210
0
220
0
230
1
0
LINE
5
108
100
AcDbEntity
8
0
100
AcDbLine
10
-8.5000001266598701
20
99.500001482665539
30
0
11
-2.4801316466986383
21
99.500001482665539
31
0
0
LINE
5
109
100
AcDbEntity
8
0
100
AcDbLine
10
-3.5000000521540642
20
104.50000155717134
30
0
11
-3.5000000521540642
21
98.480133077210112
31
0
0
LINE
5
110
100
AcDbEntity
8
0
100
AcDbLine
10
101.46226600993499
20
-8.5000001266598701
30
0
11
101.46226600993495
21
-2.4930692312973863
31
0
0
LINE
5
111
100
AcDbEntity
8
0
100
AcDbLine
10
106.50000158697367
20
-3.5000000521540642
30
0
11
100.48013310701243
21
-3.5000000521540642
31
0
0
LINE
5
112
100
AcDbEntity
8
0
100
AcDbLine
10
101.46226600993495
20
-2.4930692312973863
30
0
11
101.46226600993498
21
98.493070661808872
31
0
0
LINE
5
113
100
AcDbEntity
8
0
100
AcDbLine
10
-2.4801316466986383
20
99.500001482665539
30
0
11
100.48013310701243
21
99.500001482665539
31
0
0
LINE
5
114
100
AcDbEntity
8
0
100
AcDbLine
10
-3.5000000521540642
20
98.480133077210112
30
0
11
-3.5000000521540642
21
-2.4801316466986392
31
0
0
LINE
5
115
100
AcDbEntity
8
0
100
AcDbLine
10
100.48013310701243
20
-3.5000000521540642
30
0
11
-2.4801316466986392
21
-3.5000000521540642
31
0
0
CIRCLE
5
116
100
AcDbEntity
8
0
100
AcDbCircle
10
91.180000000000007
20
51.610000000000007
30
0
40
1.5000000000000002
210
0
220
0
230
1
0
CIRCLE
5
117
100
AcDbEntity
8
0
100
AcDbCircle
10
91.180000000000007
20
45.259999999999998
30
0
40
1.5000000000000002
210
0
220
0
230
1
0
CIRCLE
5
118
100
AcDbEntity
8
0
100
AcDbCircle
10
91.159999999999997
20
38.909999999999997
30
0
40
1.5000000000000002
210
0
220
0
230
1
0
CIRCLE
5
119
100
AcDbEntity
8
0
100
AcDbCircle
10
91.159999999999997
20
32.560000000000002
30
0
40
1.5000000000000002
210
0
220
0
230
1
0
CIRCLE
5
120
100
AcDbEntity
8
0
100
AcDbCircle
10
73.250000000000014
20
52.850000000000001
30
0
40
1.6500000000000001
210
-0
220
0
230
1
0
CIRCLE
5
121
100
AcDbEntity
8
0
100
AcDbCircle
10
58.250000000000014
20
52.850000000000001
30
0
40
1.6500000000000001
210
-0
220
0
230
1
0
CIRCLE
5
122
100
AcDbEntity
8
0
100
AcDbCircle
10
42.749999999999993
20
52.650000000000006
30
0
40
1.6500000000000001
210
0
220
0
230
1
0
CIRCLE
5
123
100
AcDbEntity
8
0
100
AcDbCircle
10
6.9000000000000004
20
74.099999999999994
30
0
40
2.9504999999999999
210
0
220
-0
230
1
0
LWPOLYLINE
5
124
100
AcDbEntity
8
0
100
AcDbPolyline
90
8
70
1
43
0.0
10
20.850000000000009
20
88.880000000000024
10
90.150000000000006
20
88.879999999999995
42
-0.41421356237310542
10
91.150000000000006
20
87.879999999999995
10
91.150000000000006
20
65.579999999999998
42
-0.41421356237309503
10
90.150000000000006
20
64.579999999999998
10
20.850000000000009
20
64.579999999999998
42
-0.41421356237309503
10
19.850000000000009
20
65.580000000000013
10
19.849999999999991
20
87.879999999999995
42
-0.41421356237309631
0
LWPOLYLINE
5
125
100
AcDbEntity
8
0
100
AcDbPolyline
90
8
70
1
43
0.0
10
92.150000000000006
20
87.879999999999995
42
0.41421356237310281
10
90.149999999999991
20
89.879999999999995
10
20.850000000000009
20
89.88000000000001
42
0.4142135623730957
10
18.849999999999987
20
87.879999999999995
10
18.850000000000009
20
65.580000000000013
42
0.41421356237309503
10
20.850000000000009
20
63.580000000000005
10
90.150000000000006
20
63.580000000000005
42
0.41421356237309503
10
92.150000000000006
20
65.579999999999998
0
CIRCLE
5
126
100
AcDbEntity
8
0
100
AcDbCircle
10
6.9000000000000004
20
74.099999999999994
30
0
40
3.4999999999999964
210
0
220
0
230
1
0
CIRCLE
5
127
100
AcDbEntity
8
0
100
AcDbCircle
10
42.749999999999993
20
52.650000000000006
30
0
40
3.25
210
0
220
0
230
1
0
CIRCLE
5
128
100
AcDbEntity
8
0
100
AcDbCircle
10
58.250000000000014
20
52.850000000000001
30
0
40
3.25
210
0
220
0
230
1
0
CIRCLE
5
129
100
AcDbEntity
8
0
100
AcDbCircle
10
73.250000000000014
20
52.850000000000001
30
0
40
3.25
210
0
220
0
230
1
0
CIRCLE
5
130
100
AcDbEntity
8
0
100
AcDbCircle
10
91.180000000000007
20
51.610000000000007
30
0
40
2.5000000000000044
210
0
220
0
230
1
0
CIRCLE
5
131
100
AcDbEntity
8
0
100
AcDbCircle
10
91.180000000000007
20
45.259999999999998
30
0
40
2.5
210
0
220
0
230
1
0
CIRCLE
5
132
100
AcDbEntity
8
0
100
AcDbCircle
10
91.159999999999997
20
38.909999999999997
30
0
40
2.5000000000000062
210
0
220
0
230
1
0
CIRCLE
5
133
100
AcDbEntity
8
0
100
AcDbCircle
10
91.159999999999997
20
32.560000000000002
30
0
40
2.499999999999996
210
0
220
0
230
1
0
CIRCLE
5
134
100
AcDbEntity
8
0
100
AcDbCircle
10
91.180000000000007
20
51.610000000000007
30
0
40
1.9999999999999953
210
0
220
0
230
1
0
CIRCLE
5
135
100
AcDbEntity
8
0
100
AcDbCircle
10
91.180000000000007
20
45.259999999999998
30
0
40
2.0000000000000044
210
0
220
0
230
1
0
CIRCLE
5
136
100
AcDbEntity
8
0
100
AcDbCircle
10
91.159999999999997
20
38.909999999999997
30
0
40
1.999999999999996
210
0
220
0
230
1
0
CIRCLE
5
137
100
AcDbEntity
8
0
100
AcDbCircle
10
91.159999999999997
20
32.560000000000002
30
0
40
2.0000000000000018
210
0
220
0
230
1
0
LINE
5
138
100
AcDbEntity
8
0
100
AcDbLine
10
91.180000000000007
20
51.610000000000007
30
0
11
91.180000000000007
21
56.610000000000007
31
0
0
LINE
5
139
100
AcDbEntity
8
0
100
AcDbLine
10
91.180000000000007
20
56.610000000000007
30
0
11
87.180000000000007
21
56.610000000000007
31
0
0
LWPOLYLINE
5
140
100
AcDbEntity
8
0
100
AcDbPolyline
90
4
70
1
43
0.0
10
87.180000000000007
20
56.610000000000007
10
95.180000000000007
20
56.610000000000007
10
95.180000000000007
20
27.609999999999999
10
87.180000000000007
20
27.609999999999999
0
CIRCLE
5
141
100
AcDbEntity
8
0
100
AcDbCircle
10
42.749999999999993
20
52.650000000000006
30
0
40
2.75
210
0
220
0
230
1
0
CIRCLE
5
142
100
AcDbEntity
8
0
100
AcDbCircle
10
42.749999999999993
20
52.650000000000006
30
0
40
1.6000000000000019
210
0
220
0
230
1
0
CIRCLE
5
143
100
AcDbEntity
8
0
100
AcDbCircle
10
58.250000000000014
20
52.850000000000001
30
0
40
2.75
210
0
220
0
230
1
0
CIRCLE
5
144
100
AcDbEntity
8
0
100
AcDbCircle
10
58.250000000000014
20
52.850000000000001
30
0
40
1.6000000000000003
210
0
220
0
230
1
0
CIRCLE
5
145
100
AcDbEntity
8
0
100
AcDbCircle
10
73.250000000000014
20
52.850000000000001
30
0
40
2.75
210
0
220
0
230
1
0
CIRCLE
5
146
100
AcDbEntity
8
0
100
AcDbCircle
10
73.250000000000014
20
52.850000000000001
30
0
40
1.599999999999995
210
0
220
0
230
1
0
ENDSEC
0
SECTION
2
OBJECTS
0
DICTIONARY
5
C
100
AcDbDictionary
3
ACAD_GROUP
350
D
3
ACAD_MLINESTYLE
350
17
0
DICTIONARY
5
D
100
AcDbDictionary
0
DICTIONARY
5
1A
330
C
100
AcDbDictionary
0
DICTIONARY
5
17
100
AcDbDictionary
0
ENDSEC
0
EOF
