0
SECTION
2
HEADER
9
$INSUNITS
70
4
9
$ACADVER
1
AC1014
9
$HANDSEED
5
FFFF
0
ENDSEC
0
SECTION
2
TABLES
0
TABLE
2
VPORT
5
8
100
AcDbSymbolTable
0
ENDTAB
0
TABLE
2
LTYPE
5
5
100
AcDbSymbolTable
0
LTYPE
5
14
100
AcDbSymbolTableRecord
100
AcDbLinetypeTableRecord
2
BYBLOCK
70
0
0
LTYPE
5
15
100
AcDbSymbolTableRecord
100
AcDbLinetypeTableRecord
2
BYLAYER
70
0
0
ENDTAB
0
TABLE
2
LAYER
5
2
100
AcDbSymbolTable
70
2
0
LAYER
5
50
100
AcDbSymbolTableRecord
100
AcDbLayerTableRecord
2
0
70
0
6
CONTINUOUS
0
ENDTAB
0
TABLE
2
STYLE
5
3
100
AcDbSymbolTable
70
1
0
STYLE
5
11
100
AcDbSymbolTableRecord
100
AcDbTextStyleTableRecord
2
STANDARD
70
0
0
ENDTAB
0
TABLE
2
VIEW
5
6
100
AcDbSymbolTable
70
0
0
ENDTAB
0
TABLE
2
UCS
5
7
100
AcDbSymbolTable
70
0
0
ENDTAB
0
TABLE
2
APPID
5
9
100
AcDbSymbolTable
70
2
0
APPID
5
12
100
AcDbSymbolTableRecord
100
AcDbRegAppTableRecord
2
ACAD
70
0
0
ENDTAB
0
TABLE
2
DIMSTYLE
5
A
100
AcDbSymbolTable
70
1
0
ENDTAB
0
TABLE
2
BLOCK_RECORD
5
1
100
AcDbSymbolTable
70
1
0
BLOCK_RECORD
5
1F
100
AcDbSymbolTableRecord
100
AcDbBlockTableRecord
2
*MODEL_SPACE
0
BLOCK_RECORD
5
1B
100
AcDbSymbolTableRecord
100
AcDbBlockTableRecord
2
*PAPER_SPACE
0
ENDTAB
0
ENDSEC
0
SECTION
2
BLOCKS
0
BLOCK
5
20
100
AcDbEntity
100
AcDbBlockBegin
2
*MODEL_SPACE
0
ENDBLK
5
21
100
AcDbEntity
100
AcDbBlockEnd
0
BLOCK
5
1C
100
AcDbEntity
100
AcDbBlockBegin
2
*PAPER_SPACE
0
ENDBLK
5
1D
100
AcDbEntity
100
AcDbBlockEnd
0
ENDSEC
0
SECTION
2
ENTITIES
0
LWPOLYLINE
5
100
100
AcDbEntity
8
0
100
AcDbPolyline
90
4
70
1
43
0.0
10
75.00000111758709
20
50.00000074505806
10
-5.000000074505806
20
50.00000074505806
10
-5.000000074505806
20
-5.000000074505806
10
75.00000111758709
20
-5.000000074505806
0
LWPOLYLINE
5
101
100
AcDbEntity
8
0
100
AcDbPolyline
90
4
70
1
43
0.0
10
71.000001057982445
20
46.000000685453415
10
-1.0000000149011612
20
46.000000685453415
10
-1.0000000149011612
20
-1.0000000149011612
10
71.000001057982445
20
-1.0000000149011612
0
CIRCLE
5
102
100
AcDbEntity
8
0
100
AcDbCircle
10
19.5
20
28.400000000000002
30
0
40
1.7999999999999998
210
-0
220
0
230
1
0
CIRCLE
5
103
100
AcDbEntity
8
0
100
AcDbCircle
10
25.500000000000004
20
28.500000000000007
30
0
40
1.7999999999999998
210
-0
220
0
230
1
0
CIRCLE
5
104
100
AcDbEntity
8
0
100
AcDbCircle
10
13.5
20
28.500000000000007
30
0
40
1.7999999999999998
210
-0
220
0
230
1
0
LINE
5
105
100
AcDbEntity
8
0
100
AcDbLine
10
33.260000000000005
20
31.140000000000306
30
0
11
33.260000000000005
21
28.140000000000004
31
0
0
LINE
5
106
100
AcDbEntity
8
0
100
AcDbLine
10
33.260000000000005
20
28.140000000000004
30
0
11
36.760000000000005
21
28.140000000000001
31
0
0
LINE
5
107
100
AcDbEntity
8
0
100
AcDbLine
10
36.760000000000005
20
28.140000000000001
30
0
11
36.760000000000005
21
31.140000000000299
31
0
0
LINE
5
108
100
AcDbEntity
8
0
100
AcDbLine
10
43.259999999999998
20
31.140000000000306
30
0
11
43.259999999999998
21
28.140000000000004
31
0
0
LINE
5
109
100
AcDbEntity
8
0
100
AcDbLine
10
43.259999999999998
20
28.140000000000004
30
0
11
46.759999999999991
21
28.140000000000001
31
0
0
LINE
5
110
100
AcDbEntity
8
0
100
AcDbLine
10
46.759999999999991
20
28.140000000000001
30
0
11
46.760000000000005
21
31.140000000000299
31
0
0
CIRCLE
5
111
100
AcDbEntity
8
0
100
AcDbCircle
10
-2.0000000298023224
20
47.000000700354576
30
0
40
1.5999999999999996
210
0
220
0
230
1
0
CIRCLE
5
112
100
AcDbEntity
8
0
100
AcDbCircle
10
-2.0000000298023224
20
47.000000700354576
30
0
40
1.3999999999999999
210
0
220
0
230
1
0
CIRCLE
5
113
100
AcDbEntity
8
0
100
AcDbCircle
10
72.000001072883606
20
47.000000700354576
30
0
40
1.6000000000000012
210
0
220
0
230
1
0
CIRCLE
5
114
100
AcDbEntity
8
0
100
AcDbCircle
10
72.000001072883606
20
47.000000700354576
30
0
40
1.3999999999999988
210
0
220
0
230
1
0
CIRCLE
5
115
100
AcDbEntity
8
0
100
AcDbCircle
10
72.000001072883606
20
-2.0000000298023224
30
0
40
1.6000000000000014
210
0
220
0
230
1
0
CIRCLE
5
116
100
AcDbEntity
8
0
100
AcDbCircle
10
72.000001072883606
20
-2.0000000298023224
30
0
40
1.3999999999999999
210
0
220
0
230
1
0
CIRCLE
5
117
100
AcDbEntity
8
0
100
AcDbCircle
10
-2.0000000298023224
20
-2.0000000298023224
30
0
40
1.6000000000000003
210
0
220
0
230
1
0
CIRCLE
5
118
100
AcDbEntity
8
0
100
AcDbCircle
10
-2.0000000298023224
20
-2.0000000298023224
30
0
40
1.4000000000000001
210
0
220
0
230
1
0
ARC
5
119
100
AcDbEntity
8
0
100
AcDbCircle
10
-2.0000000298023224
20
-2.0000000298023224
30
0
40
3.0000000447034836
210
0
220
-0
230
1
100
AcDbArc
50
0
51
90
0
ARC
5
120
100
AcDbEntity
8
0
100
AcDbCircle
10
-2.0000000298023224
20
47.000000700354576
30
0
40
3.0000000447034836
210
-0
220
0
230
1
100
AcDbArc
50
-90
51
0
0
ARC
5
121
100
AcDbEntity
8
0
100
AcDbCircle
10
72.000001072883606
20
47.000000700354576
30
0
40
3.0000000447034836
210
0
220
0
230
1
100
AcDbArc
50
180
51
270
0
ARC
5
122
100
AcDbEntity
8
0
100
AcDbCircle
10
72.000001072883606
20
-2.0000000298023224
30
0
40
3.0000000447034836
210
0
220
-0
230
1
100
AcDbArc
50
90
51
180
0
CIRCLE
5
123
100
AcDbEntity
8
0
100
AcDbCircle
10
13.5
20
28.500000000000007
30
0
40
2.5
210
0
220
0
230
1
0
CIRCLE
5
124
100
AcDbEntity
8
0
100
AcDbCircle
10
19.5
20
28.400000000000002
30
0
40
2.5
210
0
220
0
230
1
0
CIRCLE
5
125
100
AcDbEntity
8
0
100
AcDbCircle
10
25.500000000000004
20
28.500000000000007
30
0
40
2.5000000000000018
210
0
220
0
230
1
0
LWPOLYLINE
5
126
100
AcDbEntity
8
0
100
AcDbPolyline
90
4
70
1
43
0.0
10
13.5
20
33.000000000000007
42
0.99999999999999989
10
13.5
20
24.000000000000004
10
25.500000000000004
20
23.999989448160829
42
1.0010833720640591
10
25.490254915909887
20
33.000000000000007
0
LWPOLYLINE
5
127
100
AcDbEntity
8
0
100
AcDbPolyline
90
4
70
1
43
0.0
10
37.009999877065425
20
26.640000000000001
10
32.510000000000005
20
26.640000000000001
10
32.510000000000005
20
35.640000000000001
10
37.009999877065425
20
35.640000000000001
0
CIRCLE
5
128
100
AcDbEntity
8
0
100
AcDbCircle
10
34.760000000000005
20
38.640000000000001
30
0
40
1
210
-0
220
0
230
1
0
CIRCLE
5
129
100
AcDbEntity
8
0
100
AcDbCircle
10
34.760000000000005
20
23.640000000000004
30
0
40
1
210
-0
220
0
230
1
0
CIRCLE
5
130
100
AcDbEntity
8
0
100
AcDbCircle
10
44.759999999999998
20
23.640000000000004
30
0
40
1
210
-0
220
0
230
1
0
CIRCLE
5
131
100
AcDbEntity
8
0
100
AcDbCircle
10
44.759999999999998
20
38.640000000000001
30
0
40
1
210
-0
220
0
230
1
0
LINE
5
132
100
AcDbEntity
8
0
100
AcDbLine
10
34.760000000000005
20
38.640000000000001
30
0
11
34.760000000000005
21
23.640000000000004
31
0
0
LINE
5
133
100
AcDbEntity
8
0
100
AcDbLine
10
44.759999999999998
20
38.640000000000001
30
0
11
44.759999999999998
21
23.640000000000004
31
0
0
LWPOLYLINE
5
134
100
AcDbEntity
8
0
100
AcDbPolyline
90
4
70
1
43
0.0
10
42.510000000000005
20
26.640000000000001
10
42.510000000000005
20
35.640000000000001
10
47.009999877065425
20
35.640000000000001
10
47.009999877065425
20
26.640000000000001
0
LINE
5
135
100
AcDbEntity
8
0
100
AcDbLine
10
25.500000000000004
20
31.000000000000007
30
0
11
25.490254915909887
21
33.000000000000007
31
0
0
LINE
5
136
100
AcDbEntity
8
0
100
AcDbLine
10
25.500000000000004
20
26.000000000000007
30
0
11
25.500000000000004
21
23.999989448160829
31
0
0
LINE
5
137
100
AcDbEntity
8
0
100
AcDbLine
10
75.00000111758709
20
41.500000640749931
30
0
11
60.000000894069679
21
41.500000640749931
31
0
0
LINE
5
138
100
AcDbEntity
8
0
100
AcDbLine
10
60.000000894069679
20
41.500000640749931
30
0
11
60.000000894069679
21
29.500000432133678
31
0
0
LINE
5
139
100
AcDbEntity
8
0
100
AcDbLine
10
60.000000894069679
20
29.500000432133678
30
0
11
75.00000111758709
21
29.500000432133675
31
0
0
LINE
5
140
100
AcDbEntity
8
0
100
AcDbLine
10
-5.000000074505806
20
21.000000312924385
30
0
11
9.0000001341104507
21
21.000000312924385
31
0
0
LINE
5
141
100
AcDbEntity
8
0
100
AcDbLine
10
9.0000001341104507
20
21.000000312924385
30
0
11
9.0000001341104507
21
9.0000001341104507
31
0
0
LINE
5
142
100
AcDbEntity
8
0
100
AcDbLine
10
9.0000001341104507
20
9.0000001341104507
30
0
11
-5.000000074505806
21
9.0000001341104507
31
0
0
CIRCLE
5
143
100
AcDbEntity
8
0
100
AcDbCircle
10
13.5
20
28.500000000000007
30
0
40
1.9999999999999978
210
0
220
0
230
1
0
CIRCLE
5
144
100
AcDbEntity
8
0
100
AcDbCircle
10
19.5
20
28.400000000000002
30
0
40
1.9999999999999993
210
0
220
0
230
1
0
CIRCLE
5
145
100
AcDbEntity
8
0
100
AcDbCircle
10
25.500000000000004
20
28.500000000000007
30
0
40
1.9999999999999996
210
0
220
0
230
1
0
LINE
5
146
100
AcDbEntity
8
0
100
AcDbLine
10
25.500000000000004
20
26.000000000000007
30
0
11
25.500000000000004
21
26.500000394880772
31
0
0
LINE
5
147
100
AcDbEntity
8
0
100
AcDbLine
10
25.500000000000004
20
31.000000000000007
30
0
11
25.502436278252723
21
30.499998516136522
31
0
0
ENDSEC
0
SECTION
2
OBJECTS
0
DICTIONARY
5
C
100
AcDbDictionary
3
ACAD_GROUP
350
D
3
ACAD_MLINESTYLE
350
17
0
DICTIONARY
5
D
100
AcDbDictionary
0
DICTIONARY
5
1A
330
C
100
AcDbDictionary
0
DICTIONARY
5
17
100
AcDbDictionary
0
ENDSEC
0
EOF
