M48
; DRILL file {KiCad (5.1.6)-1} date 09/11/24 13:17:42
; FORMAT={-:-/ absolute / metric / decimal}
; #@! TF.CreationDate,2024-09-11T13:17:42-05:00
; #@! TF.GenerationSoftware,Kicad,Pcbnew,(5.1.6)-1
FMAT,2
METRIC
T1C0.800
T2C0.900
T3C2.000
%
G90
G05
T1
X14.9Y21.0
X15.5Y31.1
X19.94Y38.84
X20.02Y7.39
X20.07Y34.4
X25.4Y7.41
X27.55Y34.344
X27.6Y24.1
X27.63Y20.17
X27.7Y15.1
X30.09Y31.11
X32.63Y38.77
X8.46Y26.26
X9.16Y26.26
X11.46Y26.26
X12.16Y26.26
X14.46Y26.26
X15.16Y26.26
X8.22Y19.31
X8.22Y11.69
X8.46Y36.26
X9.16Y36.26
X11.46Y36.26
X12.16Y36.26
X14.46Y36.26
X15.16Y36.26
X22.6Y15.7
X22.6Y13.16
X22.6Y10.62
X13.35Y11.0
X15.85Y11.0
X32.6Y32.9
X32.6Y25.28
X13.25Y5.0
X15.75Y5.0
X13.25Y17.0
X15.75Y17.0
X5.61Y19.36
X5.61Y11.74
X8.37Y42.67
X15.99Y42.67
T2
X4.92Y48.5
X10.0Y48.5
X25.4Y4.5
X30.48Y4.5
X36.47Y30.34
X36.47Y27.8
X36.47Y25.26
X36.47Y22.72
X36.47Y20.18
X36.47Y17.64
X17.36Y48.4
X19.9Y48.4
X22.44Y48.4
X24.98Y48.4
X27.52Y48.4
X30.06Y48.4
X32.6Y48.4
X35.14Y48.4
T3
X3.0Y3.0
X3.0Y43.0
X38.0Y43.0
X38.0Y3.0
T0
M30
